<svg width="350px" height="250px" viewBox="0 0 350 250" xmlns="http://www.w3.org/2000/svg">
  <defs>
    <linearGradient id="g1" x1="0%" y1="0%" x2="100%" y2="100%">
      <stop offset="0%" style="stop-color:#00f2ff;stop-opacity:1" />
      <stop offset="100%" style="stop-color:#0070f2;stop-opacity:1" />
    </linearGradient>
    <filter id="glow">
      <feGaussianBlur stdDeviation="4.5" result="coloredBlur"/>
      <feMerge>
        <feMergeNode in="coloredBlur"/>
        <feMergeNode in="SourceGraphic"/>
      </feMerge>
    </filter>
  </defs>
  <style>
    .cloud { fill: url(#g1); filter: url(#glow); opacity: 0.9; }
    .arrow { fill: #ffffff; }
  </style>
  <path class="cloud" d="M260,160 c0-33-27-60-60-60 c-6,0-12,1-17,3 c-10-26-36-43-65-43 c-35,0-64,26-70,60 c-30,4-53,29-53,60 c0,33,27,60,60,60 h145 c33,0,60-27,60-60 z" />
  <path class="arrow" d="M175,130 L175,200 M175,130 L145,160 M175,130 L205,160" stroke="#ffffff" stroke-width="12" stroke-linecap="round" stroke-linejoin="round" fill="none"/>
</svg>
